<svg id="visual" viewBox="0 0 900 600" width="900" height="600" xmlns="http://www.w3.org/2000/svg" xmlns:xlink="http://www.w3.org/1999/xlink" version="1.1"><path d="M0 217L21.5 194.2C43 171.3 86 125.7 128.8 121.5C171.7 117.3 214.3 154.7 257.2 159.7C300 164.7 343 137.3 385.8 136.3C428.7 135.3 471.3 160.7 514.2 163.2C557 165.7 600 145.3 642.8 148C685.7 150.7 728.3 176.3 771.2 173.3C814 170.3 857 138.7 878.5 122.8L900 107L900 0L878.5 0C857 0 814 0 771.2 0C728.3 0 685.7 0 642.8 0C600 0 557 0 514.2 0C471.3 0 428.7 0 385.8 0C343 0 300 0 257.2 0C214.3 0 171.7 0 128.8 0C86 0 43 0 21.5 0L0 0Z" fill="#89afe8" stroke-linecap="round" stroke-linejoin="miter"></path></svg>